<svg width="404" height="386" viewBox="0 0 404 386" fill="none" xmlns="http://www.w3.org/2000/svg">
<path fill-rule="evenodd" clip-rule="evenodd" d="M99.3505 188.352C128.242 188.352 153.82 174.999 171.109 154.433L154.741 137.803C139.787 121.662 120.257 113.017 99.3498 113.017C78.4448 113.017 58.9128 121.662 44.3346 137.389L27.5922 154.433C44.8809 174.981 70.4565 188.352 99.3505 188.352Z" fill="#00BBB7"/>
<path fill-rule="evenodd" clip-rule="evenodd" d="M99.3505 0.0117188C47.4257 0.0117188 5.17938 42.2546 5.17938 94.1828C5.17938 103.016 6.79928 111.416 9.07737 119.533L17.1012 111.398C38.4972 88.2873 67.8417 75.3493 99.3494 75.3493C130.859 75.3493 160.203 88.2884 181.995 111.795L189.603 119.535C191.9 111.418 193.52 103.037 193.52 94.1849C193.52 42.2601 151.277 0.0137905 99.3491 0.0137905" fill="#00BBB7"/>
<path fill-rule="evenodd" clip-rule="evenodd" d="M254.807 137.395L238.065 154.439C255.353 174.988 280.929 188.36 309.823 188.36C338.717 188.36 364.293 174.988 381.581 154.439L365.214 137.79C350.26 121.669 330.729 113.023 309.822 113.023C288.917 113.023 269.368 121.669 254.807 137.394" fill="#856188"/>
<path fill-rule="evenodd" clip-rule="evenodd" d="M227.567 111.387C248.963 88.2784 278.308 75.339 309.815 75.339C341.344 75.339 370.687 88.278 392.457 111.781L400.086 119.542C402.364 111.424 403.984 103.023 403.984 94.1711C403.984 42.267 361.741 0 309.813 0C257.888 0 215.642 42.2636 215.642 94.1711C215.642 103.023 217.262 111.405 219.559 119.542L227.567 111.387Z" fill="#856188"/>
<path fill-rule="evenodd" clip-rule="evenodd" d="M94.1697 270.281C115.075 270.281 134.607 261.635 149.185 245.909L165.927 228.865C148.639 208.316 123.063 194.944 94.169 194.944C65.2779 194.944 39.6994 208.297 22.4107 228.865L38.7782 245.495C53.7324 261.635 73.2627 270.281 94.1697 270.281Z" fill="#856188"/>
<path fill-rule="evenodd" clip-rule="evenodd" d="M94.1697 383.284C146.095 383.284 188.341 341.041 188.341 289.113C188.341 280.28 186.721 271.881 184.443 263.762L176.419 271.899C155.023 295.008 125.679 307.948 94.1708 307.948C62.6616 307.948 33.3167 295.009 11.5254 271.502L3.91698 263.762C1.62 271.88 1.3136e-06 280.26 5.39711e-07 289.112C-3.9997e-06 341.037 42.2428 383.283 94.1711 383.283" fill="#856188"/>
<path fill-rule="evenodd" clip-rule="evenodd" d="M309.816 272.87C330.722 272.87 350.253 264.225 364.831 248.499L381.575 231.454C364.285 210.906 338.707 197.534 309.816 197.534C280.925 197.534 255.347 210.887 238.058 231.454L254.424 248.085C269.378 264.225 288.91 272.87 309.816 272.87" fill="#00BBB7"/>
<path fill-rule="evenodd" clip-rule="evenodd" d="M309.815 385.874C361.74 385.874 403.987 343.631 403.987 291.702C403.987 282.869 402.367 274.47 400.089 266.352L392.065 274.489C370.67 297.598 341.324 310.537 309.816 310.537C278.307 310.537 248.966 297.598 227.175 274.092L219.565 266.351C217.268 274.47 215.648 282.85 215.648 291.702C215.648 343.627 257.891 385.873 309.819 385.873" fill="#00BBB7"/>
</svg>
